<svg width="9" height="15" viewBox="0 0 9 15" fill="none" xmlns="http://www.w3.org/2000/svg">
<path d="M7.7785 11.949L3.06442 7.23487L7.7785 2.52079C7.89099 2.4083 7.98022 2.27476 8.04109 2.1278C8.10197 1.98083 8.1333 1.82331 8.1333 1.66423C8.1333 1.50515 8.10197 1.34764 8.04109 1.20067C7.98022 1.0537 7.89099 0.920162 7.7785 0.807678C7.66602 0.695193 7.53248 0.605966 7.38551 0.54509C7.23855 0.484214 7.08103 0.452881 6.92195 0.452881C6.76287 0.452881 6.60535 0.484214 6.45839 0.54509C6.31142 0.605966 6.17788 0.695193 6.0654 0.807678L0.48868 6.38439C0.0148413 6.85823 0.0148413 7.62366 0.48868 8.0975L6.0654 13.6742C6.1778 13.7868 6.31131 13.8762 6.45829 13.9372C6.60527 13.9981 6.76283 14.0295 6.92195 14.0295C7.08107 14.0295 7.23863 13.9981 7.38561 13.9372C7.53259 13.8762 7.6661 13.7868 7.7785 13.6742C8.24019 13.2004 8.25234 12.4228 7.7785 11.949Z" fill="#1A1F26"/>
</svg>
