<svg width="17" height="28" viewBox="0 0 17 28" fill="none" xmlns="http://www.w3.org/2000/svg">
<path d="M1.6765 23.0534L10.7298 14.0001L1.6765 4.94672C1.46047 4.7307 1.28912 4.47424 1.1722 4.19199C1.05529 3.90974 0.995117 3.60723 0.995117 3.30172C0.995117 2.99622 1.05529 2.69371 1.1722 2.41146C1.28912 2.12921 1.46047 1.87275 1.6765 1.65672C1.89252 1.4407 2.14898 1.26934 2.43123 1.15243C2.71348 1.03552 3.01599 0.975342 3.3215 0.975342C3.627 0.975342 3.92952 1.03552 4.21177 1.15243C4.49402 1.26934 4.75047 1.4407 4.9665 1.65672L15.6765 12.3667C16.5865 13.2767 16.5865 14.7467 15.6765 15.6567L4.9665 26.3667C4.75063 26.583 4.49423 26.7546 4.21196 26.8717C3.92968 26.9888 3.62709 27.0491 3.3215 27.0491C3.01591 27.0491 2.71331 26.9888 2.43104 26.8717C2.14877 26.7546 1.89236 26.583 1.6765 26.3667C0.789832 25.4567 0.766499 23.9634 1.6765 23.0534Z" fill="white"/>
</svg>
