<svg width="40" height="47" viewBox="0 0 40 47" fill="none" xmlns="http://www.w3.org/2000/svg">
<g clip-path="url(#clip0)">
<path d="M19.9669 0.930425C31.4942 12.6866 38.0611 21.3309 38.5843 36.0711C38.772 36.4876 39.0673 36.9744 39.3737 37.5503C39.9722 38.6494 40.4019 40.0146 39.4066 41.2156C37.9927 42.7275 35.9158 43.5294 33.9629 43.6974C26.22 46.4119 14.4087 49.0903 5.87232 44.3384C5.32524 44.112 5.06734 43.3701 5.3561 42.8535C5.64485 42.3368 6.41218 42.1673 6.892 42.5141C14.3811 46.683 25.7543 44.3549 33.2557 41.7251C35.0743 41.3427 36.3056 41.1722 37.7949 39.8678C38.0845 39.5046 37.6751 38.8405 37.5153 38.5364C37.246 38.0303 36.8655 37.4419 36.5779 36.745C36.5274 36.6254 36.4994 36.4965 36.4956 36.3669C36.2966 22.6707 28.3191 11.9754 18.8979 2.85351C14.7489 3.70147 11.0514 5.05928 8.22416 6.76532C8.39544 7.91467 9.12333 9.55353 9.98393 10.7429C11.0563 11.6961 12.5048 12.7369 13.9475 13.537C14.5951 12.9157 15.0177 12.0389 15.2303 11.2031C15.0064 10.5257 14.3199 10.421 13.9639 10.8908C13.5749 11.2907 12.8532 11.2937 12.4607 10.8972C12.0683 10.5007 12.0794 9.77947 12.4837 9.39513C13.3761 8.57016 14.3362 8.36926 15.329 8.68838C15.9171 8.88427 16.4357 9.25891 16.8256 9.77317L18.2729 9.03352C18.7498 8.79916 19.3934 8.99831 19.6544 9.46086C21.3835 12.5267 21.5283 15.4991 21.5786 18.3528C21.5687 24.3746 22.1463 29.1351 27.3678 31.8141C27.8629 32.0594 28.0902 32.7328 27.8447 33.2276C27.5993 33.7225 26.9255 33.9496 26.4303 33.7043C23.5002 32.2401 21.7298 30.2532 20.9208 28.1652C16.748 25.9121 12.8002 26.7421 9.19446 28.3625C9.94883 29.5679 9.98965 31.1825 9.42471 32.7017C9.21338 33.2457 8.4949 33.5228 7.97262 33.2619C7.45034 33.0009 7.24115 32.2602 7.54981 31.7648C8.44477 28.9768 3.70772 24.8577 0.741033 24.533C0.211348 24.3695 -0.121752 23.7391 0.0418798 23.2098C0.205511 22.6805 0.836369 22.3477 1.366 22.5113C4.53525 23.2182 6.31526 24.8239 7.74722 26.7519C12.0044 24.5362 16.101 24.0932 20.1643 25.6506C19.5136 23.0242 19.5127 20.603 19.4735 18.3858C19.4299 15.9098 19.2687 13.6913 18.2401 11.4169L17.1217 11.9921C16.7626 13.1956 16.3047 14.2768 15.4113 15.0493C14.3441 15.8726 13.3397 15.6751 12.3029 15.0985C10.9149 14.1935 9.44483 13.3153 8.3393 12.0578C8.32198 12.0366 8.30556 12.0147 8.28998 11.9921C7.14053 10.4109 5.94401 8.29093 5.98748 6.20656C5.99063 5.86186 6.17564 5.52395 6.46442 5.33543C9.78839 3.17912 14.175 1.58408 19.046 0.651109C19.4084 0.575504 19.7232 0.730309 19.9669 0.930393L19.9669 0.930425ZM25.5336 36.1898C26.0776 36.7626 25.8182 37.4837 25.3778 37.8462C20.3867 41.1715 14.5431 41.7812 9.95104 38.3393C9.50755 38.0079 9.4057 37.3032 9.73723 36.86C10.0688 36.4168 10.7739 36.315 11.2174 36.6463C15.046 39.5159 19.728 39.0737 24.2101 36.0874C24.7294 35.792 25.1761 35.8622 25.5336 36.1898Z" fill="#516E1E"/>
</g>
<defs>
<clipPath id="clip0">
<rect y="0.631592" width="40" height="46.3158" fill="white"/>
</clipPath>
</defs>
</svg>
