<svg width="36" height="32" viewBox="0 0 36 32" fill="none" xmlns="http://www.w3.org/2000/svg">
<g clip-path="url(#clip0)">
<path d="M9.78662 0.390381C7.38205 0.390381 4.97756 1.3322 3.1632 3.23101C-0.465595 7.02854 -0.460915 13.1138 3.1632 16.9138L17.0147 31.4404C17.1408 31.5727 17.2925 31.678 17.4605 31.75C17.6285 31.8219 17.8093 31.8591 17.9921 31.8591C18.1749 31.8591 18.3557 31.8219 18.5237 31.75C18.6917 31.678 18.8434 31.5727 18.9695 31.4404C23.5901 26.6047 28.2143 21.7636 32.8351 16.9279C36.4638 13.1303 36.4638 7.04267 32.8351 3.24507C29.2063 -0.552518 23.217 -0.552598 19.5882 3.24507L17.9991 4.89038L16.4101 3.23101C14.5957 1.33221 12.1912 0.390381 9.78662 0.390381ZM9.78662 3.03413C11.4652 3.03413 13.1551 3.72582 14.4695 5.10132L17.0288 7.78726C17.1549 7.91955 17.3066 8.02489 17.4746 8.09685C17.6425 8.16881 17.8234 8.20589 18.0062 8.20589C18.1889 8.20589 18.3698 8.16881 18.5378 8.09685C18.7058 8.02489 18.8574 7.91955 18.9835 7.78726L21.5288 5.11538C24.1575 2.36432 28.2517 2.36439 30.8804 5.11538C33.509 7.86636 33.509 12.3206 30.8804 15.0716C26.5873 19.5645 22.2922 24.0507 17.9991 28.5435L5.11787 15.0576C2.49059 12.3027 2.48919 7.85223 5.11787 5.10132C6.43218 3.72583 8.10808 3.03413 9.78662 3.03413Z" fill="#516E1E"/>
</g>
<defs>
<clipPath id="clip0">
<rect y="0.375" width="36" height="31.5" fill="white"/>
</clipPath>
</defs>
</svg>
