<svg width="53" height="54" viewBox="0 0 53 54" fill="none" xmlns="http://www.w3.org/2000/svg">
<g clip-path="url(#clip0)">
<path d="M51.8687 28.4296C50.8564 27.1194 49.0699 26.8217 47.1642 27.5958C46.6878 27.7745 45.9732 28.0723 45.1395 28.4296L48.5934 18.961C48.8912 18.1273 48.8316 17.234 48.4743 16.4599C48.117 15.6857 47.462 15.0902 46.6283 14.7925C46.0328 14.5543 45.3777 14.5543 44.7822 14.7329L45.1991 13.5419C45.4968 12.7082 45.4373 11.8149 45.08 11.0408C44.7227 10.2666 44.0676 9.67113 43.2339 9.37337C41.5665 8.77787 39.7204 9.67113 39.1249 11.279C38.7676 10.8026 38.2316 10.3857 37.6361 10.1475C35.9687 9.55203 34.1227 10.4453 33.4676 12.1127L32.8721 13.7801C32.5148 13.3037 31.9788 12.8869 31.3833 12.7082C29.7159 12.1127 27.8699 13.006 27.2148 14.7329L25.3092 20.0925L24.4159 17.8296C24.1182 16.9958 23.4631 16.3408 22.6889 15.9835C21.9148 15.6262 21.0811 15.6262 20.3069 15.9239C19.7114 16.1621 19.235 16.579 18.8777 17.0554L18.2227 15.4475C17.9249 14.6138 17.2698 13.9588 16.4957 13.6015C15.7215 13.2442 14.8878 13.2442 14.1137 13.5419C13.5182 13.7801 13.0418 14.197 12.6845 14.6734C12.3272 13.8992 11.7316 13.3037 10.9575 12.9464C10.1833 12.5891 9.34962 12.5891 8.57547 12.8869C6.9676 13.5419 6.13389 15.4475 6.78895 17.1149L7.26535 18.306C6.66985 18.1869 6.07434 18.1869 5.47884 18.4251C3.87097 19.0801 3.03726 20.9857 3.69232 22.6531L7.92041 33.3722L5.35974 31.8239C4.64513 31.3475 3.81142 31.1093 3.03726 31.2284C2.20356 31.3475 1.4294 31.8239 0.952994 32.5385C-0.0593652 33.9678 0.297938 35.9925 1.6676 37.0644C2.20356 37.6003 9.11142 43.079 11.6125 44.8655C13.4586 46.1756 15.7215 46.8902 17.9845 46.8902C19.4732 46.8902 21.0215 46.5925 22.5103 45.997C24.8328 45.0442 26.7979 43.4363 28.1081 41.2925C28.8227 41.7689 29.5968 42.1262 30.4305 42.4239C31.8002 42.9003 33.2294 43.1385 34.6586 43.1385C37.1597 43.1385 39.5418 42.3644 41.5665 40.8756C44.0676 39.0296 50.9159 33.3127 51.3328 32.9554C52.7024 31.8835 52.9406 29.7992 51.8687 28.4296ZM21.9148 44.6273C18.6395 45.9374 15.126 45.5801 12.3867 43.6745C9.94513 41.888 2.79906 36.1711 2.73951 36.1116C1.96535 35.5161 1.7867 34.3846 2.32266 33.5509C2.56086 33.1936 2.97771 32.8958 3.45412 32.8363C3.93052 32.7767 4.34738 32.8958 4.70468 33.134C4.70468 33.134 4.76423 33.134 4.76423 33.1936L9.23052 35.8734C9.46873 36.052 9.82603 35.9925 10.0642 35.8138C10.3024 35.6352 10.362 35.2779 10.2429 34.9801L5.18108 22.2363C4.82378 21.2835 5.24064 20.2711 6.13389 19.9138C6.4912 19.7947 6.90805 19.7947 7.3249 19.9734C7.74176 20.152 8.09906 20.5093 8.33726 20.9262L11.017 27.834C11.1361 28.1318 11.4339 28.3105 11.6721 28.3105C11.7316 28.3105 11.8507 28.3105 11.9103 28.2509C12.2676 28.1318 12.4463 27.6554 12.3272 27.2981L9.70693 20.6284V20.5689C9.70693 20.5093 9.64738 20.4498 9.64738 20.3902L8.21816 16.6981C7.86086 15.7453 8.27771 14.7329 9.17097 14.3756C9.58783 14.197 10.0642 14.197 10.4811 14.3756C10.8979 14.5543 11.2552 14.9116 11.4339 15.388L12.3867 17.8891L15.4833 25.9284C15.6024 26.2262 15.9002 26.4048 16.1384 26.4048C16.1979 26.4048 16.317 26.4048 16.3766 26.3453C16.7339 26.2262 16.9125 25.7498 16.7934 25.3925L13.8159 17.5914L13.7564 17.4127C13.3991 16.4599 13.8159 15.4475 14.7092 15.0902C15.126 14.9116 15.6024 14.9116 16.0193 15.0902C16.4361 15.2689 16.7934 15.6262 16.9721 16.1026L18.58 20.152C18.58 20.2116 18.58 20.2116 18.6395 20.2711L20.7833 25.9284C20.9024 26.2857 21.3788 26.4644 21.7361 26.3453C22.0934 26.2262 22.2721 25.7498 22.153 25.3925L19.9496 19.7352C19.5923 18.7824 20.0092 17.77 20.9024 17.4127C21.3193 17.234 21.7957 17.234 22.2125 17.4127C22.6294 17.5914 22.9867 17.9487 23.1654 18.4251L27.9294 30.8116C29.8946 36.4093 27.2743 42.4835 21.9148 44.6273ZM50.38 31.8239C50.3204 31.8835 43.1148 37.8385 40.6732 39.6846C37.9935 41.7093 34.3013 42.1857 30.9665 40.9947C30.2519 40.7565 29.5373 40.3992 28.8822 39.9824C28.9418 39.8633 29.0013 39.7442 29.0609 39.5655C30.3114 36.6475 30.4305 33.3722 29.3586 30.3352L26.2024 22.2363L28.644 15.2689C29.0013 14.3161 30.0137 13.8397 30.9069 14.1374C31.3238 14.3161 31.6811 14.6138 31.9193 15.0307C32.0979 15.4475 32.1575 15.9835 31.9788 16.4003L29.835 22.4745C29.7159 22.8318 29.8946 23.2487 30.2519 23.4273C30.3114 23.4273 30.4305 23.4869 30.4901 23.4869C30.7878 23.4869 31.0856 23.3082 31.2047 23.0105L33.3485 16.9363C33.3485 16.8767 33.3485 16.8767 33.4081 16.8172L34.8968 12.7082C35.2541 11.7554 36.2665 11.279 37.1597 11.5767C37.5766 11.7554 37.9339 12.0531 38.1721 12.47C38.3507 12.8869 38.4103 13.4228 38.2316 13.8992L38.1721 14.0779L35.1946 22.7127C35.0755 23.07 35.2541 23.4869 35.671 23.6655C35.7305 23.6655 35.8496 23.7251 35.9092 23.7251C36.2069 23.7251 36.5047 23.5464 36.6238 23.2487L39.7204 14.4352L40.6137 11.934C40.971 10.9812 41.9833 10.5048 42.8766 10.8026C43.2934 10.9812 43.6507 11.279 43.889 11.6958C44.0676 12.1127 44.1272 12.6487 43.9485 13.0655L42.6384 16.6385C42.5788 16.7576 42.5788 16.8172 42.5193 16.9363C42.5193 16.9958 42.5193 17.0554 42.4597 17.0554L39.78 24.4397C39.6609 24.797 39.8395 25.2138 40.1968 25.3925C40.2564 25.3925 40.3755 25.452 40.435 25.452C40.7328 25.452 41.0305 25.2734 41.1496 24.9756L43.9485 17.234C44.3654 16.4003 45.3777 15.9239 46.1519 16.2217C46.5687 16.4003 46.926 16.6981 47.1642 17.1149C47.3429 17.5318 47.4024 18.0678 47.2238 18.4846L43.2934 29.1442C42.6384 29.3824 42.0429 29.6206 41.7451 29.7397C37.9934 28.3105 35.9687 29.9779 34.3013 31.288C34.0036 31.5262 33.944 32.0026 34.1822 32.3003C34.4204 32.5981 34.8968 32.6576 35.1946 32.4194C36.8024 31.1093 38.2912 29.8588 41.4474 31.1689C41.626 31.2284 41.8047 31.2284 41.9833 31.1689C42.162 31.1093 46.271 29.5015 47.7002 28.906C48.4743 28.6082 49.9036 28.1914 50.6777 29.2633C51.3328 30.097 51.1541 31.2284 50.38 31.8239Z" fill="#516E1E"/>
<path d="M9.76643 7.8845L13.4586 10.2665C13.5777 10.3261 13.6968 10.3856 13.8754 10.3856C14.1136 10.3856 14.3518 10.2665 14.4709 10.0283C14.7091 9.67102 14.59 9.25416 14.2327 9.01596L10.5406 6.63394C10.1833 6.39573 9.76643 6.51484 9.52822 6.87214C9.29002 7.22944 9.40912 7.6463 9.76643 7.8845Z" fill="#516E1E"/>
<path d="M18.461 7.28894C18.5801 7.5867 18.8183 7.76535 19.1756 7.76535C19.2351 7.76535 19.3542 7.76535 19.4138 7.7058C19.7711 7.5867 20.0093 7.16984 19.8902 6.75299L17.8655 0.857484C17.7464 0.50018 17.3295 0.261978 16.9127 0.381079C16.5554 0.500181 16.3172 0.917034 16.4363 1.33389L18.461 7.28894Z" fill="#516E1E"/>
<path d="M24.8922 6.75295C24.9517 6.8125 25.0708 6.8125 25.1304 6.8125C25.4281 6.8125 25.7259 6.63384 25.7854 6.33609L27.2742 2.2271C27.3933 1.8698 27.2146 1.45295 26.8573 1.27429C26.5 1.15519 26.0832 1.33384 25.9045 1.69115L24.4157 5.80014C24.2966 6.21699 24.5348 6.63384 24.8922 6.75295Z" fill="#516E1E"/>
<path d="M30.1328 47.8427C29.7755 47.7236 29.3587 47.9619 29.2396 48.3192L27.989 52.4877C27.8699 52.845 28.1081 53.2619 28.4654 53.381C28.5249 53.381 28.5845 53.4405 28.7036 53.4405C29.0013 53.4405 29.2991 53.2619 29.4182 52.9045L30.6688 48.736C30.7283 48.3787 30.5497 47.9619 30.1328 47.8427Z" fill="#516E1E"/>
<path d="M36.3261 46.771C36.1474 46.4137 35.7306 46.235 35.3733 46.3541C35.016 46.5328 34.8373 46.9496 34.9564 47.3069L37.3384 53.0833C37.4575 53.3811 37.7553 53.5597 37.9935 53.5597C38.1126 53.5597 38.1722 53.5597 38.2913 53.5002C38.6486 53.3215 38.8272 52.9047 38.7081 52.5474L36.3261 46.771Z" fill="#516E1E"/>
<path d="M45.0204 45.3419L41.2092 43.198C40.8519 43.0194 40.435 43.1385 40.1968 43.4958C40.0182 43.8531 40.1373 44.27 40.4946 44.5082L44.3058 46.652C44.4249 46.7115 44.544 46.7711 44.6631 46.7711C44.9013 46.7711 45.1395 46.652 45.3182 46.4138C45.4968 45.9969 45.3777 45.5801 45.0204 45.3419Z" fill="#516E1E"/>
</g>
<defs>
<clipPath id="clip0">
<rect y="0.202148" width="53" height="53.5955" fill="white"/>
</clipPath>
</defs>
</svg>
