<svg width="40" height="47" viewBox="0 0 40 47" fill="none" xmlns="http://www.w3.org/2000/svg">
<g clip-path="url(#clip0)">
<path fill-rule="evenodd" clip-rule="evenodd" d="M27.3796 17.6288H22.639V12.8731C22.639 12.3694 22.2319 11.9611 21.7299 11.9611C21.2278 11.9611 20.8208 12.3694 20.8208 12.8731V18.5408C20.8208 19.0445 21.2278 19.4528 21.7299 19.4528H27.3796C27.8816 19.4528 28.2886 19.0445 28.2886 18.5408C28.2886 18.0371 27.8816 17.6288 27.3796 17.6288ZM31.3962 34.5122C31.2594 34.6762 31.1845 34.8833 31.1845 35.0972V44.6876H15.0721V36.7943C15.0721 36.5295 14.9573 36.2777 14.7577 36.1045C14.5581 35.9313 14.2934 35.8534 14.032 35.8917L8.98143 36.6291C8.41443 36.6847 7.8707 36.504 7.44807 36.1195C7.02152 35.7311 6.78916 35.1992 6.79379 34.6213C6.79416 34.5742 6.79089 34.527 6.78398 34.4803L5.84807 28.1436C5.78198 27.6965 5.39943 27.3653 4.94879 27.3653H3.17207C2.68634 27.3653 2.25043 27.1139 2.00616 26.6928C1.7617 26.2718 1.75907 25.7673 1.99898 25.3436L5.67652 18.8477C5.80425 18.6818 5.87307 18.4741 5.86579 18.2588C5.85861 18.0467 5.85525 17.8716 5.85525 17.7079C5.85525 8.94948 12.9582 1.82399 21.6887 1.82399C30.6062 1.82399 38.14 9.09795 38.14 17.7079C38.14 22.8382 35.3668 29.7484 31.3962 34.5122ZM34.463 5.17072C31.0203 1.88463 26.3643 0 21.6887 0C11.9555 0 4.03707 7.94373 4.03707 17.7079C4.03707 17.8147 4.03825 17.9247 4.04088 18.0434L0.417976 24.4429C-0.145206 25.4377 -0.138933 26.6218 0.434794 27.6105C1.00843 28.5991 2.0317 29.1893 3.17207 29.1893H4.16443L4.97579 34.6824C4.98834 35.7435 5.44143 36.7559 6.22634 37.4702C7.02979 38.2016 8.10943 38.5552 9.18834 38.4414C9.20025 38.4401 9.21216 38.4387 9.22388 38.4369L13.2539 37.8485V45.5996C13.2539 46.1033 13.6609 46.5116 14.163 46.5116H32.0936C32.5956 46.5116 33.0027 46.1033 33.0027 45.5996V35.425C37.1093 30.3714 39.9582 23.1353 39.9582 17.7079C39.9582 13.0057 38.0066 8.55312 34.463 5.17072ZM21.9696 28.3875C16.5574 28.3875 12.1542 23.9703 12.1542 18.5408C12.1542 13.1114 16.5574 8.69414 21.9696 8.69414C27.3818 8.69414 31.7849 13.1114 31.7849 18.5408C31.7849 23.9703 27.3818 28.3875 21.9696 28.3875ZM21.9696 6.87015C15.5548 6.87015 10.336 12.1056 10.336 18.5408C10.336 24.976 15.5548 30.2115 21.9696 30.2115C28.3844 30.2115 33.6031 24.976 33.6031 18.5408C33.6031 12.1056 28.3844 6.87015 21.9696 6.87015Z" fill="#516E1E"/>
</g>
<defs>
<clipPath id="clip0">
<rect width="40" height="46.5116" fill="white"/>
</clipPath>
</defs>
</svg>
