<svg width="1440" height="134" viewBox="0 0 1440 134" fill="none" xmlns="http://www.w3.org/2000/svg">
<g opacity="0.34" filter="url(#filter0_d)">
<path d="M25 36.0001L485 54.0279L937 10.014L1179 4.17432L1465 36.0001V79.5741C1465 79.5741 1147.5 -11.4999 767 44.5001C386.5 100.5 25 79.5741 25 79.5741V36.0001Z" fill="#3A6F8F"/>
</g>
<g filter="url(#filter1_d)">
<path d="M25 22.0001C79 28.0001 404.5 56.0001 594.5 38.0001C732.742 24.9036 893 8.00017 932.5 5.74991C981.536 2.95642 1161.79 -1.9815 1223.5 2.00006C1316.5 8.00008 1407.5 9.50011 1465 22C1465 48.5001 1465 60.5886 1465 60.5886C1465 60.5886 1200 -25.4999 959.5 28.0001C719 81.5001 25 60.5886 25 60.5886C25 60.5886 25 39.5001 25 22.0001Z" fill="#7FA1B5"/>
</g>
<defs>
<filter id="filter0_d" x="0" y="4.17432" width="1440" height="129.228" filterUnits="userSpaceOnUse" color-interpolation-filters="sRGB">
<feFlood flood-opacity="0" result="BackgroundImageFix"/>
<feColorMatrix in="SourceAlpha" type="matrix" values="0 0 0 0 0 0 0 0 0 0 0 0 0 0 0 0 0 0 127 0"/>
<feOffset dy="25"/>
<feGaussianBlur stdDeviation="12.5"/>
<feColorMatrix type="matrix" values="0 0 0 0 0 0 0 0 0 0 0 0 0 0 0 0 0 0 0.1 0"/>
<feBlend mode="normal" in2="BackgroundImageFix" result="effect1_dropShadow"/>
<feBlend mode="normal" in="SourceGraphic" in2="effect1_dropShadow" result="shape"/>
</filter>
<filter id="filter1_d" x="0" y="0.507812" width="1440" height="114.106" filterUnits="userSpaceOnUse" color-interpolation-filters="sRGB">
<feFlood flood-opacity="0" result="BackgroundImageFix"/>
<feColorMatrix in="SourceAlpha" type="matrix" values="0 0 0 0 0 0 0 0 0 0 0 0 0 0 0 0 0 0 127 0"/>
<feOffset dy="25"/>
<feGaussianBlur stdDeviation="12.5"/>
<feColorMatrix type="matrix" values="0 0 0 0 0 0 0 0 0 0 0 0 0 0 0 0 0 0 0.1 0"/>
<feBlend mode="normal" in2="BackgroundImageFix" result="effect1_dropShadow"/>
<feBlend mode="normal" in="SourceGraphic" in2="effect1_dropShadow" result="shape"/>
</filter>
</defs>
</svg>
