<svg width="8" height="13" viewBox="0 0 8 13" fill="none" xmlns="http://www.w3.org/2000/svg">
<path d="M0.77827 10.7033L4.9816 6.50001L0.77827 2.29668C0.677973 2.19638 0.598413 2.07731 0.544133 1.94626C0.489853 1.81522 0.461914 1.67477 0.461914 1.53293C0.461914 1.39108 0.489853 1.25063 0.544133 1.11959C0.598413 0.988543 0.677973 0.869473 0.77827 0.769176C0.878567 0.668879 0.997637 0.589319 1.12868 0.535038C1.25973 0.480758 1.40018 0.45282 1.54202 0.45282C1.68386 0.45282 1.82431 0.480758 1.95536 0.535038C2.0864 0.589319 2.20547 0.668879 2.30577 0.769176L7.27827 5.74168C7.70077 6.16418 7.70077 6.84668 7.27827 7.26918L2.30577 12.2417C2.20555 12.3421 2.0865 12.4218 1.95545 12.4761C1.82439 12.5305 1.6839 12.5585 1.54202 12.5585C1.40014 12.5585 1.25965 12.5305 1.12859 12.4761C0.997539 12.4218 0.878493 12.3421 0.77827 12.2417C0.366603 11.8192 0.35577 11.1258 0.77827 10.7033Z" fill="#8B8C8C"/>
</svg>
