<svg width="42" height="42" viewBox="0 0 42 42" fill="none" xmlns="http://www.w3.org/2000/svg">
<path d="M20.9738 0.447754C9.64116 0.447754 0.421631 9.6678 0.421631 21.0005C0.421631 32.3331 9.64116 41.5526 20.9738 41.5526C32.3065 41.5526 41.5265 32.3331 41.5265 20.9999C41.5265 9.66675 32.3065 0.447754 20.9738 0.447754ZM20.9738 38.9276C11.0886 38.9276 3.04663 30.8857 3.04663 20.9999C3.04663 11.1147 11.0886 3.07223 20.9738 3.07223C30.859 3.07223 38.9015 11.1147 38.9015 20.9999C38.9015 30.8857 30.859 38.9276 20.9738 38.9276Z" fill="#516E1E"/>
<path d="M13.2001 19.1855C14.7042 19.1855 15.928 17.9618 15.928 16.4576C15.928 14.9535 14.7042 13.7297 13.2001 13.7297C11.6959 13.7297 10.4722 14.9535 10.4722 16.4576C10.4716 17.9618 11.6954 19.1855 13.2001 19.1855Z" fill="#516E1E"/>
<path d="M28.7479 19.1855C30.252 19.1855 31.4758 17.9618 31.4758 16.4576C31.4758 14.9535 30.252 13.7297 28.7479 13.7297C27.2438 13.7297 26.02 14.9535 26.02 16.4576C26.02 17.9618 27.2438 19.1855 28.7479 19.1855Z" fill="#516E1E"/>
<path d="M30.462 22.2285C29.737 22.2285 29.1495 22.816 29.1495 23.541C29.1495 27.9032 25.6347 31.1924 20.9737 31.1924C16.3128 31.1924 12.7974 27.9027 12.7974 23.541C12.7974 22.816 12.2099 22.2285 11.4849 22.2285C10.7598 22.2285 10.1724 22.816 10.1724 23.541C10.1724 29.3995 14.816 33.8174 20.9737 33.8174C27.1314 33.8174 31.7745 29.3995 31.7745 23.541C31.7745 22.816 31.1871 22.2285 30.462 22.2285Z" fill="#516E1E"/>
</svg>
