<svg width="1441" height="108" viewBox="0 0 1441 108" fill="none" xmlns="http://www.w3.org/2000/svg">
<path d="M0.000125838 34.5C0.000125838 34.5 414 95.8618 733 45.0677C1052 -5.72638 1440 48.2379 1440 48.2379C1440 48.2379 1440 51.7861 1440 86.2861C1413.5 90.5 1195.5 61 1067.5 62.7861C1000.5 61.7861 904 70.5 716.5 90C529 109.5 437.5 108 330.5 104.286C310.506 103.592 69 91.2861 0.000125838 86.2861C-1.99683e-05 64.2861 0.000125838 34.5 0.000125838 34.5Z" fill="#B7C9D4"/>
<path opacity="0.35" d="M0.00231934 31.0793C0.00231934 31.0793 324.002 136.096 733.002 41.3337C1142 -53.429 1440 44.4101 1440 44.4101C1440 44.4101 1440 24 1440 87C1336.5 87 1154 51.5 966.502 66.678C787.531 81.1657 579.002 110.614 399.502 107C325.002 105.5 174.502 99 0.00231934 87C0.00231934 44.4101 0.00231934 31.0793 0.00231934 31.0793Z" fill="#3A6F8F"/>
</svg>
